<mxfile host="app.diagrams.net" modified="2024-07-02T17:43:38.588Z" agent="Mozilla/5.0 (X11; Linux x86_64) AppleWebKit/537.36 (KHTML, like Gecko) Chrome/126.0.0.0 Safari/537.36" etag="Y-Lfo8-osrGJuMmnXuvw" version="24.6.4" type="github">
  <diagram name="Page-1" id="6BMHD1SPw-dI2yk9PpzQ">
    <mxGraphModel dx="2365" dy="674" grid="1" gridSize="10" guides="1" tooltips="1" connect="1" arrows="1" fold="1" page="1" pageScale="1" pageWidth="1169" pageHeight="827" math="0" shadow="0">
      <root>
        <mxCell id="0" />
        <mxCell id="1" parent="0" />
        <mxCell id="0BV0fbSeF7QQFf89MgYb-1" value="PointSensorArray" style="rounded=0;whiteSpace=wrap;html=1;fillColor=#dae8fc;strokeColor=#6c8ebf;" parent="1" vertex="1">
          <mxGeometry x="525" y="470" width="120" height="60" as="geometry" />
        </mxCell>
        <mxCell id="h1IlqTZcv5QUdoHM8rJp-5" style="edgeStyle=orthogonalEdgeStyle;rounded=0;orthogonalLoop=1;jettySize=auto;html=1;entryX=0;entryY=0.25;entryDx=0;entryDy=0;exitX=0.5;exitY=1;exitDx=0;exitDy=0;" edge="1" parent="1" source="0BV0fbSeF7QQFf89MgYb-2" target="0BV0fbSeF7QQFf89MgYb-1">
          <mxGeometry relative="1" as="geometry" />
        </mxCell>
        <mxCell id="0BV0fbSeF7QQFf89MgYb-2" value="ScalarField" style="shape=hexagon;perimeter=hexagonPerimeter2;whiteSpace=wrap;html=1;fixedSize=1;fillColor=#d5e8d4;strokeColor=#82b366;" parent="1" vertex="1">
          <mxGeometry x="380" y="320" width="120" height="80" as="geometry" />
        </mxCell>
        <mxCell id="h1IlqTZcv5QUdoHM8rJp-6" style="edgeStyle=orthogonalEdgeStyle;rounded=0;orthogonalLoop=1;jettySize=auto;html=1;exitX=0.5;exitY=1;exitDx=0;exitDy=0;entryX=0.5;entryY=0;entryDx=0;entryDy=0;" edge="1" parent="1" source="0BV0fbSeF7QQFf89MgYb-3" target="0BV0fbSeF7QQFf89MgYb-1">
          <mxGeometry relative="1" as="geometry" />
        </mxCell>
        <mxCell id="0BV0fbSeF7QQFf89MgYb-3" value="VectorField" style="shape=hexagon;perimeter=hexagonPerimeter2;whiteSpace=wrap;html=1;fixedSize=1;fillColor=#d5e8d4;strokeColor=#82b366;" parent="1" vertex="1">
          <mxGeometry x="525" y="320" width="120" height="80" as="geometry" />
        </mxCell>
        <mxCell id="h1IlqTZcv5QUdoHM8rJp-7" style="edgeStyle=orthogonalEdgeStyle;rounded=0;orthogonalLoop=1;jettySize=auto;html=1;exitX=0.5;exitY=1;exitDx=0;exitDy=0;entryX=1;entryY=0.25;entryDx=0;entryDy=0;" edge="1" parent="1" source="0BV0fbSeF7QQFf89MgYb-4" target="0BV0fbSeF7QQFf89MgYb-1">
          <mxGeometry relative="1" as="geometry" />
        </mxCell>
        <mxCell id="0BV0fbSeF7QQFf89MgYb-4" value="TensorField" style="shape=hexagon;perimeter=hexagonPerimeter2;whiteSpace=wrap;html=1;fixedSize=1;fillColor=#d5e8d4;strokeColor=#82b366;" parent="1" vertex="1">
          <mxGeometry x="670" y="320" width="120" height="80" as="geometry" />
        </mxCell>
        <mxCell id="0BV0fbSeF7QQFf89MgYb-20" style="edgeStyle=orthogonalEdgeStyle;rounded=0;orthogonalLoop=1;jettySize=auto;html=1;exitX=0;exitY=0;exitDx=0;exitDy=0;entryX=0.5;entryY=0;entryDx=0;entryDy=0;" parent="1" source="0BV0fbSeF7QQFf89MgYb-8" target="0BV0fbSeF7QQFf89MgYb-18" edge="1">
          <mxGeometry relative="1" as="geometry" />
        </mxCell>
        <mxCell id="0BV0fbSeF7QQFf89MgYb-8" value="Measurment Pos&lt;div&gt;(Spatial,Coord)&lt;/div&gt;" style="shape=parallelogram;perimeter=parallelogramPerimeter;whiteSpace=wrap;html=1;fixedSize=1;" parent="1" vertex="1">
          <mxGeometry x="120" y="550" width="140" height="60" as="geometry" />
        </mxCell>
        <mxCell id="0BV0fbSeF7QQFf89MgYb-21" style="edgeStyle=orthogonalEdgeStyle;rounded=0;orthogonalLoop=1;jettySize=auto;html=1;exitX=0;exitY=0.75;exitDx=0;exitDy=0;entryX=0.5;entryY=1;entryDx=0;entryDy=0;" parent="1" source="0BV0fbSeF7QQFf89MgYb-9" target="0BV0fbSeF7QQFf89MgYb-18" edge="1">
          <mxGeometry relative="1" as="geometry" />
        </mxCell>
        <mxCell id="0BV0fbSeF7QQFf89MgYb-9" value="Sensor Pos&lt;div&gt;(Spatial,Coord)&lt;/div&gt;" style="shape=parallelogram;perimeter=parallelogramPerimeter;whiteSpace=wrap;html=1;fixedSize=1;" parent="1" vertex="1">
          <mxGeometry x="120" y="640" width="140" height="60" as="geometry" />
        </mxCell>
        <mxCell id="h1IlqTZcv5QUdoHM8rJp-3" style="edgeStyle=orthogonalEdgeStyle;rounded=0;orthogonalLoop=1;jettySize=auto;html=1;" edge="1" parent="1" source="0BV0fbSeF7QQFf89MgYb-10" target="0BV0fbSeF7QQFf89MgYb-3">
          <mxGeometry relative="1" as="geometry" />
        </mxCell>
        <mxCell id="0BV0fbSeF7QQFf89MgYb-10" value="Norm /&amp;nbsp;&lt;div&gt;Magnitude&lt;/div&gt;" style="shape=step;perimeter=stepPerimeter;whiteSpace=wrap;html=1;fixedSize=1;fillColor=#e1d5e7;strokeColor=#9673a6;" parent="1" vertex="1">
          <mxGeometry x="525" y="120" width="120" height="80" as="geometry" />
        </mxCell>
        <mxCell id="0BV0fbSeF7QQFf89MgYb-11" value="&lt;div&gt;Vector&lt;/div&gt;Rotation" style="shape=step;perimeter=stepPerimeter;whiteSpace=wrap;html=1;fixedSize=1;fillColor=#e1d5e7;strokeColor=#9673a6;" parent="1" vertex="1">
          <mxGeometry x="525" y="220" width="120" height="80" as="geometry" />
        </mxCell>
        <mxCell id="h1IlqTZcv5QUdoHM8rJp-1" style="edgeStyle=orthogonalEdgeStyle;rounded=0;orthogonalLoop=1;jettySize=auto;html=1;" edge="1" parent="1" source="0BV0fbSeF7QQFf89MgYb-13" target="0BV0fbSeF7QQFf89MgYb-2">
          <mxGeometry relative="1" as="geometry" />
        </mxCell>
        <mxCell id="0BV0fbSeF7QQFf89MgYb-13" value="Max/Min" style="shape=step;perimeter=stepPerimeter;whiteSpace=wrap;html=1;fixedSize=1;fillColor=#e1d5e7;strokeColor=#9673a6;" parent="1" vertex="1">
          <mxGeometry x="380" y="220" width="120" height="80" as="geometry" />
        </mxCell>
        <mxCell id="h1IlqTZcv5QUdoHM8rJp-2" style="edgeStyle=orthogonalEdgeStyle;rounded=0;orthogonalLoop=1;jettySize=auto;html=1;endArrow=none;endFill=0;" edge="1" parent="1" source="0BV0fbSeF7QQFf89MgYb-14" target="0BV0fbSeF7QQFf89MgYb-13">
          <mxGeometry relative="1" as="geometry" />
        </mxCell>
        <mxCell id="0BV0fbSeF7QQFf89MgYb-14" value="Stats:&lt;div&gt;Avg,Std,Med&lt;/div&gt;" style="shape=step;perimeter=stepPerimeter;whiteSpace=wrap;html=1;fixedSize=1;fillColor=#e1d5e7;strokeColor=#9673a6;" parent="1" vertex="1">
          <mxGeometry x="380" y="120" width="120" height="80" as="geometry" />
        </mxCell>
        <mxCell id="h1IlqTZcv5QUdoHM8rJp-4" style="edgeStyle=orthogonalEdgeStyle;rounded=0;orthogonalLoop=1;jettySize=auto;html=1;" edge="1" parent="1" source="0BV0fbSeF7QQFf89MgYb-15" target="0BV0fbSeF7QQFf89MgYb-4">
          <mxGeometry relative="1" as="geometry" />
        </mxCell>
        <mxCell id="0BV0fbSeF7QQFf89MgYb-16" value="Invariants" style="shape=step;perimeter=stepPerimeter;whiteSpace=wrap;html=1;fixedSize=1;fillColor=#e1d5e7;strokeColor=#9673a6;" parent="1" vertex="1">
          <mxGeometry x="670" y="20" width="120" height="80" as="geometry" />
        </mxCell>
        <mxCell id="0BV0fbSeF7QQFf89MgYb-18" value="Line of Sight&lt;div&gt;(Spatial,Vector)&lt;/div&gt;" style="shape=parallelogram;perimeter=parallelogramPerimeter;whiteSpace=wrap;html=1;fixedSize=1;" parent="1" vertex="1">
          <mxGeometry x="-20" y="600" width="120" height="60" as="geometry" />
        </mxCell>
        <mxCell id="0BV0fbSeF7QQFf89MgYb-22" value="Measurement&lt;div&gt;Times&lt;/div&gt;&lt;div&gt;(Time)&lt;/div&gt;" style="shape=parallelogram;perimeter=parallelogramPerimeter;whiteSpace=wrap;html=1;fixedSize=1;" parent="1" vertex="1">
          <mxGeometry x="120" y="720" width="140" height="60" as="geometry" />
        </mxCell>
        <mxCell id="0BV0fbSeF7QQFf89MgYb-12" value="Tensor&amp;nbsp;&lt;div&gt;Rotation&lt;div&gt;&lt;/div&gt;&lt;/div&gt;" style="shape=step;perimeter=stepPerimeter;whiteSpace=wrap;html=1;fixedSize=1;fillColor=#e1d5e7;strokeColor=#9673a6;" parent="1" vertex="1">
          <mxGeometry x="670" y="220" width="120" height="80" as="geometry" />
        </mxCell>
        <mxCell id="h1IlqTZcv5QUdoHM8rJp-8" value="" style="edgeStyle=orthogonalEdgeStyle;rounded=0;orthogonalLoop=1;jettySize=auto;html=1;" edge="1" parent="1" source="0BV0fbSeF7QQFf89MgYb-16" target="0BV0fbSeF7QQFf89MgYb-15">
          <mxGeometry relative="1" as="geometry">
            <mxPoint x="730" y="100" as="sourcePoint" />
            <mxPoint x="730" y="320" as="targetPoint" />
          </mxGeometry>
        </mxCell>
        <mxCell id="0BV0fbSeF7QQFf89MgYb-15" value="Norm /&amp;nbsp;&lt;div&gt;Magnitude&lt;/div&gt;" style="shape=step;perimeter=stepPerimeter;whiteSpace=wrap;html=1;fixedSize=1;fillColor=#e1d5e7;strokeColor=#9673a6;" parent="1" vertex="1">
          <mxGeometry x="670" y="120" width="120" height="80" as="geometry" />
        </mxCell>
      </root>
    </mxGraphModel>
  </diagram>
</mxfile>
